<svg width="34" height="40" viewBox="0 0 34 40" fill="none" xmlns="http://www.w3.org/2000/svg">
<path d="M16.9265 0C19.0483 0 21.0831 0.842855 22.5834 2.34315C24.0837 3.84344 24.9265 5.87827 24.9265 8H28.9965C30.0329 7.99986 31.0289 8.40197 31.7746 9.12162C32.5204 9.84128 32.9577 10.8223 32.9945 11.858L33.8505 35.858C33.8696 36.3948 33.7804 36.9299 33.5881 37.4314C33.3959 37.933 33.1047 38.3907 32.7318 38.7772C32.3588 39.1638 31.9119 39.4713 31.4175 39.6814C30.9232 39.8914 30.3916 39.9998 29.8545 40H3.99852C3.4614 39.9998 2.92983 39.8914 2.4355 39.6814C1.94117 39.4713 1.49422 39.1638 1.12129 38.7772C0.748368 38.3907 0.457113 37.933 0.2649 37.4314C0.0726873 36.9299 -0.0165462 36.3948 0.00252145 35.858L0.858521 11.858C0.895313 10.8223 1.33265 9.84128 2.07842 9.12162C2.82418 8.40197 3.82015 7.99986 4.85652 8H8.92652C8.92652 5.87827 9.76938 3.84344 11.2697 2.34315C12.77 0.842855 14.8048 0 16.9265 0V0ZM8.92652 12H4.85652L3.99852 36H29.8545L28.9965 12H24.9265V14C24.926 14.5098 24.7308 15.0001 24.3808 15.3707C24.0309 15.7414 23.5526 15.9645 23.0437 15.9943C22.5348 16.0242 22.0338 15.8587 21.6429 15.5315C21.252 15.2043 21.0007 14.7402 20.9405 14.234L20.9265 14V12H12.9265V14C12.926 14.5098 12.7308 15.0001 12.3808 15.3707C12.0309 15.7414 11.5526 15.9645 11.0437 15.9943C10.5348 16.0242 10.0338 15.8587 9.64286 15.5315C9.25195 15.2043 9.00073 14.7402 8.94052 14.234L8.92652 14V12ZM16.9265 4C15.9174 3.99968 14.9454 4.38081 14.2054 5.06699C13.4655 5.75317 13.0122 6.69369 12.9365 7.7L12.9265 8H20.9265C20.9265 6.93913 20.5051 5.92172 19.7549 5.17157C19.0048 4.42143 17.9874 4 16.9265 4V4Z" fill="url(#paint0_linear_55_447)"/>
<path d="M13.088 32V20.704H15.6V32H13.088ZM15.008 32V29.824H21.2V32H15.008ZM15.008 27.28V25.184H20.64V27.28H15.008ZM15.008 22.864V20.704H21.12V22.864H15.008ZM16.096 19.824L15.296 18.656L17.84 16.272L19.184 18.16L16.096 19.824Z" fill="url(#paint1_linear_55_447)"/>
<defs>
<linearGradient id="paint0_linear_55_447" x1="0" y1="0" x2="39.4496" y2="33.3872" gradientUnits="userSpaceOnUse">
<stop stop-color="#FEA800"/>
<stop offset="1" stop-color="#F07301"/>
</linearGradient>
<linearGradient id="paint1_linear_55_447" x1="12" y1="16" x2="28" y2="24" gradientUnits="userSpaceOnUse">
<stop stop-color="#FEA800"/>
<stop offset="1" stop-color="#F07301"/>
</linearGradient>
</defs>
</svg>
