<svg width="231" height="48" viewBox="0 0 231 48" fill="none" xmlns="http://www.w3.org/2000/svg">
<path d="M202.667 38.6666C201.75 38.6666 200.966 38.3405 200.313 37.6883C199.66 37.035 199.333 36.25 199.333 35.3333C199.333 34.4166 199.66 33.6316 200.313 32.9783C200.966 32.3261 201.75 32 202.667 32C203.583 32 204.368 32.3261 205.02 32.9783C205.673 33.6316 206 34.4166 206 35.3333C206 36.25 205.673 37.035 205.02 37.6883C204.368 38.3405 203.583 38.6666 202.667 38.6666ZM219.333 38.6666C218.417 38.6666 217.632 38.3405 216.98 37.6883C216.327 37.035 216 36.25 216 35.3333C216 34.4166 216.327 33.6316 216.98 32.9783C217.632 32.3261 218.417 32 219.333 32C220.25 32 221.035 32.3261 221.688 32.9783C222.341 33.6316 222.667 34.4166 222.667 35.3333C222.667 36.25 222.341 37.035 221.688 37.6883C221.035 38.3405 220.25 38.6666 219.333 38.6666ZM201.25 12L205.25 20.3333H216.917L221.5 12H201.25ZM199.667 8.66665H224.25C224.889 8.66665 225.375 8.95109 225.708 9.51998C226.042 10.09 226.056 10.6666 225.75 11.25L219.833 21.9166C219.528 22.4722 219.118 22.9028 218.603 23.2083C218.09 23.5139 217.528 23.6666 216.917 23.6666H204.5L202.667 27H222.667V30.3333H202.667C201.417 30.3333 200.472 29.7844 199.833 28.6866C199.194 27.59 199.167 26.5 199.75 25.4166L202 21.3333L196 8.66665H192.667V5.33331H198.083L199.667 8.66665Z" fill="url(#paint0_linear_23_64)"/>
<line x1="196" y1="25" x2="182" y2="25" stroke="url(#paint1_linear_23_64)" stroke-width="2"/>
<line x1="187" y1="28" x2="174" y2="28" stroke="url(#paint2_linear_23_64)" stroke-width="2"/>
<line x1="196" y1="31" x2="182" y2="31" stroke="url(#paint3_linear_23_64)" stroke-width="2"/>
<line x1="191" y1="35" x2="177" y2="35" stroke="url(#paint4_linear_23_64)" stroke-width="2"/>
<path d="M19.5117 28.5703V33H5.88867V28.5703H19.5117ZM7.83984 7.40625V33H2.10938V7.40625H7.83984ZM17.7539 17.707V21.9961H5.88867V17.707H17.7539ZM19.5293 7.40625V11.8535H5.88867V7.40625H19.5293ZM8.68359 5.98242L12.1641 0.515625H18.0352L13.166 5.98242H8.68359ZM46.002 24.4219H51.6973C51.6035 26.1797 51.123 27.7324 50.2559 29.0801C49.4004 30.416 48.2109 31.4648 46.6875 32.2266C45.1641 32.9766 43.3535 33.3516 41.2559 33.3516C39.5801 33.3516 38.0801 33.0645 36.7559 32.4902C35.4316 31.916 34.3066 31.0957 33.3809 30.0293C32.4668 28.9512 31.7637 27.6562 31.2715 26.1445C30.791 24.6211 30.5508 22.9043 30.5508 20.9941V19.4297C30.5508 17.5195 30.8027 15.8027 31.3066 14.2793C31.8105 12.7559 32.5312 11.4551 33.4688 10.377C34.4062 9.29883 35.5312 8.47266 36.8438 7.89844C38.1562 7.32422 39.6211 7.03711 41.2383 7.03711C43.418 7.03711 45.2578 7.42969 46.7578 8.21484C48.2578 9 49.418 10.0781 50.2383 11.4492C51.0703 12.8203 51.5684 14.3848 51.7324 16.1426H46.0195C45.9727 15.1465 45.7852 14.3086 45.457 13.6289C45.1289 12.9375 44.625 12.416 43.9453 12.0645C43.2656 11.7129 42.3633 11.5371 41.2383 11.5371C40.418 11.5371 39.6973 11.6895 39.0762 11.9941C38.4668 12.2988 37.957 12.7734 37.5469 13.418C37.1484 14.0625 36.8496 14.8828 36.6504 15.8789C36.4512 16.8633 36.3516 18.0352 36.3516 19.3945V20.9941C36.3516 22.3418 36.4395 23.5078 36.6152 24.4922C36.791 25.4766 37.0723 26.291 37.459 26.9355C37.8574 27.5801 38.3672 28.0605 38.9883 28.377C39.6094 28.6934 40.3652 28.8516 41.2559 28.8516C42.2754 28.8516 43.125 28.6934 43.8047 28.377C44.4844 28.0488 45.0059 27.5566 45.3691 26.9004C45.7324 26.2441 45.9434 25.418 46.002 24.4219ZM53.8066 23.6836V23.3145C53.8066 21.9199 54.0059 20.6367 54.4043 19.4648C54.8027 18.2812 55.3887 17.2559 56.1621 16.3887C56.9355 15.5215 57.8848 14.8477 59.0098 14.3672C60.1348 13.875 61.4238 13.6289 62.877 13.6289C64.3535 13.6289 65.6543 13.875 66.7793 14.3672C67.916 14.8477 68.8711 15.5215 69.6445 16.3887C70.418 17.2559 71.0039 18.2812 71.4023 19.4648C71.8008 20.6367 72 21.9199 72 23.3145V23.6836C72 25.0664 71.8008 26.3496 71.4023 27.5332C71.0039 28.7051 70.418 29.7305 69.6445 30.6094C68.8711 31.4766 67.9219 32.1504 66.7969 32.6309C65.6719 33.1113 64.377 33.3516 62.9121 33.3516C61.459 33.3516 60.1641 33.1113 59.0273 32.6309C57.8906 32.1504 56.9355 31.4766 56.1621 30.6094C55.3887 29.7305 54.8027 28.7051 54.4043 27.5332C54.0059 26.3496 53.8066 25.0664 53.8066 23.6836ZM59.3086 23.3145V23.6836C59.3086 24.4336 59.3672 25.1367 59.4844 25.793C59.6133 26.4492 59.8184 27.0234 60.0996 27.5156C60.3809 28.0078 60.75 28.3945 61.207 28.6758C61.6758 28.9453 62.2441 29.0801 62.9121 29.0801C63.5801 29.0801 64.1426 28.9453 64.5996 28.6758C65.0566 28.3945 65.4258 28.0078 65.707 27.5156C65.9883 27.0234 66.1875 26.4492 66.3047 25.793C66.4336 25.1367 66.498 24.4336 66.498 23.6836V23.3145C66.498 22.5762 66.4336 21.8848 66.3047 21.2402C66.1875 20.584 65.9883 20.0039 65.707 19.5C65.4258 18.9961 65.0508 18.6035 64.582 18.3223C64.125 18.041 63.5566 17.9004 62.877 17.9004C62.2207 17.9004 61.6641 18.041 61.207 18.3223C60.75 18.6035 60.3809 18.9961 60.0996 19.5C59.8184 20.0039 59.6133 20.584 59.4844 21.2402C59.3672 21.8848 59.3086 22.5762 59.3086 23.3145ZM80.3848 17.9707V33H74.9004V13.9805H80.0508L80.3848 17.9707ZM79.6816 22.8223L78.293 22.8574C78.293 21.5215 78.4512 20.2969 78.7676 19.1836C79.0957 18.0586 79.5703 17.0801 80.1914 16.248C80.8125 15.416 81.5801 14.7715 82.4941 14.3145C83.4199 13.8574 84.4863 13.6289 85.6934 13.6289C86.5371 13.6289 87.3047 13.7578 87.9961 14.0156C88.6875 14.2617 89.2793 14.6543 89.7715 15.1934C90.2754 15.7207 90.6621 16.4121 90.9316 17.2676C91.2012 18.1113 91.3359 19.125 91.3359 20.3086V33H85.8516V20.9766C85.8516 20.1328 85.7461 19.4941 85.5352 19.0605C85.3359 18.6152 85.043 18.3105 84.6562 18.1465C84.2695 17.9824 83.8066 17.9004 83.2676 17.9004C82.6816 17.9004 82.1602 18.0293 81.7031 18.2871C81.2578 18.5332 80.8828 18.8789 80.5781 19.3242C80.2734 19.7695 80.0449 20.291 79.8926 20.8887C79.752 21.4863 79.6816 22.1309 79.6816 22.8223ZM90.7734 22.541L89.0332 22.6816C89.0332 21.3926 89.1855 20.1973 89.4902 19.0957C89.7949 17.9941 90.252 17.0391 90.8613 16.2305C91.4707 15.4102 92.2266 14.7715 93.1289 14.3145C94.043 13.8574 95.1035 13.6289 96.3105 13.6289C97.2012 13.6289 98.0098 13.7578 98.7363 14.0156C99.4746 14.2734 100.107 14.6895 100.635 15.2637C101.174 15.8379 101.59 16.5938 101.883 17.5312C102.176 18.457 102.322 19.5938 102.322 20.9414V33H96.8027V20.9414C96.8027 20.1094 96.6973 19.4766 96.4863 19.043C96.2871 18.6094 95.9941 18.3105 95.6074 18.1465C95.2324 17.9824 94.7812 17.9004 94.2539 17.9004C93.668 17.9004 93.1582 18.0234 92.7246 18.2695C92.291 18.5039 91.9277 18.832 91.6348 19.2539C91.3418 19.6641 91.125 20.1504 90.9844 20.7129C90.8438 21.2754 90.7734 21.8848 90.7734 22.541ZM111.498 17.6367V40.3125H106.014V13.9805H111.129L111.498 17.6367ZM123.363 23.2793V23.6484C123.363 25.0312 123.205 26.3145 122.889 27.498C122.572 28.6699 122.098 29.6953 121.465 30.5742C120.844 31.4531 120.076 32.1387 119.162 32.6309C118.248 33.1113 117.188 33.3516 115.98 33.3516C114.832 33.3516 113.836 33.1113 112.992 32.6309C112.16 32.1387 111.457 31.459 110.883 30.5918C110.32 29.7129 109.863 28.7109 109.512 27.5859C109.172 26.4492 108.908 25.2363 108.721 23.9473V23.2266C108.908 21.8555 109.178 20.584 109.529 19.4121C109.881 18.2402 110.338 17.2266 110.9 16.3711C111.463 15.5039 112.16 14.8301 112.992 14.3496C113.824 13.8691 114.814 13.6289 115.963 13.6289C117.158 13.6289 118.219 13.8574 119.145 14.3145C120.07 14.7715 120.844 15.4277 121.465 16.2832C122.098 17.127 122.572 18.1406 122.889 19.3242C123.205 20.5078 123.363 21.8262 123.363 23.2793ZM117.861 23.6484V23.2793C117.861 22.5059 117.803 21.7969 117.686 21.1523C117.568 20.4961 117.381 19.9277 117.123 19.4473C116.865 18.9551 116.525 18.5742 116.104 18.3047C115.682 18.0352 115.166 17.9004 114.557 17.9004C113.9 17.9004 113.344 18.0059 112.887 18.2168C112.43 18.4277 112.061 18.7383 111.779 19.1484C111.498 19.5469 111.293 20.0391 111.164 20.625C111.047 21.2109 110.982 21.8789 110.971 22.6289V24.5625C110.982 25.4414 111.105 26.2266 111.34 26.918C111.586 27.5977 111.967 28.1309 112.482 28.5176C113.01 28.8926 113.713 29.0801 114.592 29.0801C115.213 29.0801 115.729 28.9453 116.139 28.6758C116.561 28.3945 116.895 28.002 117.141 27.498C117.398 26.9941 117.58 26.4141 117.686 25.7578C117.803 25.1016 117.861 24.3984 117.861 23.6484ZM131.783 18.4102V33H126.299V13.9805H131.449L131.783 18.4102ZM137.461 13.8398L137.373 18.9551C137.139 18.9199 136.834 18.8906 136.459 18.8672C136.084 18.832 135.762 18.8145 135.492 18.8145C134.789 18.8145 134.18 18.9023 133.664 19.0781C133.16 19.2422 132.738 19.4883 132.398 19.8164C132.07 20.1445 131.824 20.5547 131.66 21.0469C131.496 21.5273 131.414 22.084 131.414 22.7168L130.377 22.207C130.377 20.9531 130.5 19.8047 130.746 18.7617C130.992 17.7188 131.35 16.8164 131.818 16.0547C132.287 15.2812 132.861 14.6836 133.541 14.2617C134.221 13.8398 134.994 13.6289 135.861 13.6289C136.143 13.6289 136.43 13.6465 136.723 13.6816C137.016 13.7168 137.262 13.7695 137.461 13.8398ZM148.324 33.3516C146.812 33.3516 145.459 33.1113 144.264 32.6309C143.068 32.1504 142.055 31.4883 141.223 30.6445C140.402 29.7891 139.775 28.8047 139.342 27.6914C138.908 26.5781 138.691 25.3887 138.691 24.123V23.4551C138.691 22.0371 138.891 20.7305 139.289 19.5352C139.688 18.3398 140.268 17.3027 141.029 16.4238C141.803 15.5332 142.752 14.8477 143.877 14.3672C145.002 13.875 146.285 13.6289 147.727 13.6289C149.074 13.6289 150.275 13.8516 151.33 14.2969C152.385 14.7305 153.275 15.3574 154.002 16.1777C154.729 16.9863 155.279 17.9648 155.654 19.1133C156.041 20.25 156.234 21.5273 156.234 22.9453V25.1953H140.906V21.6621H150.855V21.2402C150.855 20.5723 150.732 19.9863 150.486 19.4824C150.252 18.9785 149.9 18.5918 149.432 18.3223C148.975 18.041 148.395 17.9004 147.691 17.9004C147.023 17.9004 146.467 18.041 146.021 18.3223C145.576 18.6035 145.219 19.002 144.949 19.5176C144.691 20.0215 144.504 20.6133 144.387 21.293C144.27 21.9609 144.211 22.6816 144.211 23.4551V24.123C144.211 24.8613 144.311 25.5352 144.51 26.1445C144.709 26.7539 145.002 27.2754 145.389 27.709C145.775 28.1426 146.244 28.4824 146.795 28.7285C147.346 28.9746 147.973 29.0977 148.676 29.0977C149.543 29.0977 150.369 28.9336 151.154 28.6055C151.939 28.2656 152.619 27.7383 153.193 27.0234L155.76 29.959C155.373 30.5215 154.828 31.0664 154.125 31.5938C153.434 32.1094 152.602 32.5312 151.629 32.8594C150.656 33.1875 149.555 33.3516 148.324 33.3516ZM164.689 13.9805V33H159.188V13.9805H164.689ZM158.854 9.05859C158.854 8.26172 159.135 7.61133 159.697 7.10742C160.26 6.5918 160.998 6.33398 161.912 6.33398C162.826 6.33398 163.564 6.5918 164.127 7.10742C164.701 7.61133 164.988 8.26172 164.988 9.05859C164.988 9.84375 164.701 10.4941 164.127 11.0098C163.564 11.5137 162.826 11.7656 161.912 11.7656C160.998 11.7656 160.26 11.5137 159.697 11.0098C159.135 10.4941 158.854 9.84375 158.854 9.05859Z" fill="#F2F2F2"/>
<defs>
<linearGradient id="paint0_linear_23_64" x1="192.667" y1="5.33331" x2="226" y2="38.6358" gradientUnits="userSpaceOnUse">
<stop stop-color="#FEA800"/>
<stop offset="1" stop-color="#F07301"/>
</linearGradient>
<linearGradient id="paint1_linear_23_64" x1="196" y1="24" x2="195.858" y2="22.0102" gradientUnits="userSpaceOnUse">
<stop stop-color="#FEA800"/>
<stop offset="1" stop-color="#F07301"/>
</linearGradient>
<linearGradient id="paint2_linear_23_64" x1="187" y1="27" x2="186.847" y2="25.0118" gradientUnits="userSpaceOnUse">
<stop stop-color="#FEA800"/>
<stop offset="1" stop-color="#F07301"/>
</linearGradient>
<linearGradient id="paint3_linear_23_64" x1="196" y1="30" x2="195.858" y2="28.0102" gradientUnits="userSpaceOnUse">
<stop stop-color="#FEA800"/>
<stop offset="1" stop-color="#F07301"/>
</linearGradient>
<linearGradient id="paint4_linear_23_64" x1="191" y1="34" x2="190.858" y2="32.0102" gradientUnits="userSpaceOnUse">
<stop stop-color="#FEA800"/>
<stop offset="1" stop-color="#F07301"/>
</linearGradient>
</defs>
</svg>
