<svg width="110" height="40" viewBox="0 0 110 40" fill="none" xmlns="http://www.w3.org/2000/svg">
<path d="M44.448 32.176C43.6053 32.176 42.8213 32.032 42.096 31.744C41.3813 31.4453 40.752 31.0293 40.208 30.496C39.6747 29.9627 39.2587 29.344 38.96 28.64C38.6613 27.9253 38.512 27.1573 38.512 26.336C38.512 25.5147 38.6613 24.752 38.96 24.048C39.2587 23.3333 39.6747 22.7147 40.208 22.192C40.7413 21.6693 41.3653 21.264 42.08 20.976C42.8053 20.6773 43.5893 20.528 44.432 20.528C45.328 20.528 46.1227 20.672 46.816 20.96C47.52 21.248 48.1333 21.6427 48.656 22.144L46.976 23.84C46.6773 23.52 46.3147 23.2693 45.888 23.088C45.472 22.9067 44.9867 22.816 44.432 22.816C43.9413 22.816 43.488 22.9013 43.072 23.072C42.6667 23.232 42.3147 23.4667 42.016 23.776C41.728 24.0853 41.4987 24.4587 41.328 24.896C41.168 25.3333 41.088 25.8133 41.088 26.336C41.088 26.8693 41.168 27.3547 41.328 27.792C41.4987 28.2293 41.728 28.6027 42.016 28.912C42.3147 29.2213 42.6667 29.4613 43.072 29.632C43.488 29.8027 43.9413 29.888 44.432 29.888C45.008 29.888 45.5093 29.7973 45.936 29.616C46.3627 29.4347 46.7307 29.184 47.04 28.864L48.736 30.56C48.192 31.0613 47.568 31.456 46.864 31.744C46.1707 32.032 45.3653 32.176 44.448 32.176ZM55.0581 32.192C54.2048 32.192 53.4155 32.0427 52.6901 31.744C51.9755 31.4453 51.3461 31.0293 50.8021 30.496C50.2581 29.9627 49.8368 29.344 49.5381 28.64C49.2395 27.9253 49.0901 27.1573 49.0901 26.336C49.0901 25.504 49.2395 24.736 49.5381 24.032C49.8368 23.328 50.2528 22.7147 50.7861 22.192C51.3195 21.6587 51.9435 21.248 52.6581 20.96C53.3835 20.6613 54.1728 20.512 55.0261 20.512C55.8688 20.512 56.6475 20.6613 57.3621 20.96C58.0875 21.248 58.7168 21.6587 59.2501 22.192C59.7941 22.7147 60.2155 23.3333 60.5141 24.048C60.8128 24.752 60.9621 25.52 60.9621 26.352C60.9621 27.1733 60.8128 27.9413 60.5141 28.656C60.2155 29.36 59.7995 29.9787 59.2661 30.512C58.7328 31.0347 58.1035 31.4453 57.3781 31.744C56.6635 32.0427 55.8901 32.192 55.0581 32.192ZM55.0261 29.904C55.6981 29.904 56.2848 29.7547 56.7861 29.456C57.2981 29.1573 57.6928 28.7413 57.9701 28.208C58.2475 27.664 58.3861 27.04 58.3861 26.336C58.3861 25.8027 58.3061 25.3227 58.1461 24.896C57.9861 24.4587 57.7568 24.0853 57.4581 23.776C57.1595 23.456 56.8021 23.216 56.3861 23.056C55.9808 22.8853 55.5275 22.8 55.0261 22.8C54.3541 22.8 53.7621 22.9493 53.2501 23.248C52.7488 23.536 52.3595 23.9467 52.0821 24.48C51.8048 25.0027 51.6661 25.6213 51.6661 26.336C51.6661 26.8693 51.7461 27.3547 51.9061 27.792C52.0661 28.2293 52.2901 28.608 52.5781 28.928C52.8768 29.2373 53.2341 29.4773 53.6501 29.648C54.0661 29.8187 54.5248 29.904 55.0261 29.904ZM62.5568 32V20.704H64.3488L68.7968 27.632H67.8848L72.3168 20.704H74.1248V32H71.6128V24.944L72.0608 25.056L69.1648 29.568H67.5008L64.6208 25.056L65.0528 24.944V32H62.5568ZM78.2111 27.888V25.936H80.6431C80.9525 25.936 81.2351 25.872 81.4911 25.744C81.7471 25.616 81.9498 25.4293 82.0991 25.184C82.2485 24.9387 82.3231 24.64 82.3231 24.288C82.3231 23.9467 82.2485 23.6533 82.0991 23.408C81.9498 23.1627 81.7471 22.976 81.4911 22.848C81.2351 22.72 80.9525 22.656 80.6431 22.656H78.2111V20.704H81.0111C81.7258 20.704 82.3711 20.848 82.9471 21.136C83.5231 21.424 83.9765 21.84 84.3071 22.384C84.6485 22.9173 84.8191 23.552 84.8191 24.288C84.8191 25.024 84.6485 25.664 84.3071 26.208C83.9765 26.7413 83.5231 27.1573 82.9471 27.456C82.3711 27.744 81.7258 27.888 81.0111 27.888H78.2111ZM76.2911 32V20.704H78.8031V32H76.2911ZM88.1486 27.344V25.488H90.5326C91.034 25.488 91.418 25.36 91.6846 25.104C91.962 24.848 92.1006 24.5013 92.1006 24.064C92.1006 23.6587 91.9673 23.3227 91.7006 23.056C91.434 22.7893 91.05 22.656 90.5486 22.656H88.1486V20.704H90.8366C91.5833 20.704 92.2393 20.848 92.8046 21.136C93.37 21.4133 93.8126 21.8027 94.1326 22.304C94.4526 22.8053 94.6126 23.3813 94.6126 24.032C94.6126 24.6933 94.4526 25.2747 94.1326 25.776C93.8126 26.2667 93.3646 26.6507 92.7886 26.928C92.2126 27.2053 91.5353 27.344 90.7566 27.344H88.1486ZM86.2286 32V20.704H88.7406V32H86.2286ZM92.3726 32L88.8526 27.136L91.1566 26.512L95.3486 32H92.3726ZM96.4474 32V20.704H98.9594V32H96.4474ZM98.3674 32V29.824H104.559V32H98.3674ZM98.3674 27.28V25.184H103.999V27.28H98.3674ZM98.3674 22.864V20.704H104.479V22.864H98.3674ZM106.291 32V20.704H108.803V32H106.291Z" fill="#221F23"/>
<path d="M16.9265 0C19.0483 0 21.0831 0.842855 22.5834 2.34315C24.0837 3.84344 24.9265 5.87827 24.9265 8H28.9965C30.0329 7.99986 31.0289 8.40197 31.7746 9.12162C32.5204 9.84128 32.9577 10.8223 32.9945 11.858L33.8505 35.858C33.8696 36.3948 33.7804 36.9299 33.5881 37.4314C33.3959 37.933 33.1047 38.3907 32.7318 38.7772C32.3588 39.1638 31.9119 39.4713 31.4175 39.6814C30.9232 39.8914 30.3916 39.9998 29.8545 40H3.99852C3.4614 39.9998 2.92983 39.8914 2.4355 39.6814C1.94117 39.4713 1.49422 39.1638 1.12129 38.7772C0.748368 38.3907 0.457113 37.933 0.2649 37.4314C0.0726873 36.9299 -0.0165462 36.3948 0.00252145 35.858L0.858521 11.858C0.895313 10.8223 1.33265 9.84128 2.07842 9.12162C2.82418 8.40197 3.82015 7.99986 4.85652 8H8.92652C8.92652 5.87827 9.76938 3.84344 11.2697 2.34315C12.77 0.842855 14.8048 0 16.9265 0V0ZM8.92652 12H4.85652L3.99852 36H29.8545L28.9965 12H24.9265V14C24.926 14.5098 24.7308 15.0001 24.3808 15.3707C24.0309 15.7414 23.5526 15.9645 23.0437 15.9943C22.5348 16.0242 22.0338 15.8587 21.6429 15.5315C21.252 15.2043 21.0007 14.7402 20.9405 14.234L20.9265 14V12H12.9265V14C12.926 14.5098 12.7308 15.0001 12.3808 15.3707C12.0309 15.7414 11.5526 15.9645 11.0437 15.9943C10.5348 16.0242 10.0338 15.8587 9.64286 15.5315C9.25195 15.2043 9.00073 14.7402 8.94052 14.234L8.92652 14V12ZM16.9265 4C15.9174 3.99968 14.9454 4.38081 14.2054 5.06699C13.4655 5.75317 13.0122 6.69369 12.9365 7.7L12.9265 8H20.9265C20.9265 6.93913 20.5051 5.92172 19.7549 5.17157C19.0048 4.42143 17.9874 4 16.9265 4V4Z" fill="#221F23"/>
<path d="M13.088 32V20.704H15.6V32H13.088ZM15.008 32V29.824H21.2V32H15.008ZM15.008 27.28V25.184H20.64V27.28H15.008ZM15.008 22.864V20.704H21.12V22.864H15.008ZM16.096 19.824L15.296 18.656L17.84 16.272L19.184 18.16L16.096 19.824Z" fill="#221F23"/>
</svg>
